<svg width="88" height="76" viewBox="0 0 88 76" fill="none" xmlns="http://www.w3.org/2000/svg">
<g id="tlg-storefront">
<g id="Vector">
<path d="M43.5814 75.495C29.5927 75.495 15.6041 75.495 1.61542 75.4994C1.22697 75.4994 0.860609 75.4334 0.529543 75.2575C0.0483935 75.0024 -0.0619673 74.3689 0.330898 74.083C0.564851 73.9114 0.834121 73.7707 1.16077 73.7795C1.86705 73.7971 2.57332 73.7839 3.27959 73.7839C4.21541 73.7839 5.15121 73.7971 6.08703 73.7795C6.51962 73.7707 6.95224 73.7223 7.38042 73.6607C7.75121 73.6079 8.00281 73.3572 8.0911 73.0141C8.17938 72.671 8.22352 72.3102 8.22352 71.9583C8.22793 55.8321 8.22793 39.7102 8.22352 23.584C8.22352 23.2321 8.17497 22.8714 8.0911 22.5283C8.02489 22.2511 7.84391 22.018 7.54374 21.93C7.30979 21.864 7.07582 21.7849 6.83745 21.7629C5.65885 21.6485 4.51558 21.389 3.39878 21.0063C2.48063 20.6895 1.5713 20.342 0.754672 19.8054C0.326493 19.5282 -0.00458678 19.1499 0.105769 18.5825C0.154325 18.3317 0.260263 18.0766 0.405932 17.8699C0.904739 17.1484 1.43445 16.449 1.95533 15.7452C2.66602 14.7862 3.38553 13.8317 4.10063 12.8727C4.72745 12.037 5.35869 11.2012 5.98109 10.361C6.60349 9.5208 7.2259 8.68062 7.82623 7.82284C7.96307 7.62929 8.0602 7.38735 8.09552 7.15421C8.16614 6.70993 8.21469 6.26124 8.2191 5.81256C8.23676 4.4797 8.22352 3.15124 8.22352 1.81839C8.22352 0.837439 8.65171 0.379956 9.64049 0.309574C9.77292 0.300776 9.90975 0.309574 10.0422 0.309574C32.8107 0.309574 55.5792 0.309574 78.3433 0.313973C78.6391 0.313973 78.9569 0.340367 79.2306 0.441541C79.6985 0.613097 79.9634 0.938612 80.034 1.48407C80.2459 3.12925 80.1179 4.77883 80.1179 6.424C80.1179 7.2246 80.3916 7.89762 80.7888 8.53106C81.5834 9.78914 82.4353 11.0164 83.2564 12.2613C84.1878 13.6777 85.1147 15.0986 86.0373 16.5194C86.311 16.9417 86.5935 17.3596 86.8451 17.7951C86.9731 18.015 87.0703 18.2702 87.1144 18.5209C87.2204 19.1235 86.9334 19.537 86.3949 19.7878C85.1898 20.342 83.9362 20.7599 82.6472 21.0722C82.1396 21.1954 81.6231 21.279 81.1243 21.4241C80.5637 21.5869 80.1267 21.7936 80.1267 22.6382C80.1399 39.2747 80.1355 55.9113 80.1355 72.5522C80.1355 73.3176 80.343 73.5155 81.0846 73.6827C81.4819 73.7707 81.8703 73.7795 82.2676 73.7795C83.4903 73.7795 84.7086 73.7839 85.9314 73.7795C86.183 73.7795 86.4081 73.8235 86.6377 73.9334C86.9202 74.0654 87.1188 74.2545 87.1144 74.5669C87.11 74.888 86.9555 75.1563 86.6377 75.2663C86.3596 75.3675 86.0682 75.429 85.7769 75.4906C85.6489 75.517 85.512 75.495 85.3752 75.495H43.5814ZM41.0874 51.1957C41.0874 44.1971 41.0874 37.2029 41.0874 30.2043C41.0874 30.0723 41.0918 29.936 41.0874 29.804C41.0476 29.153 40.8093 28.867 40.1427 28.7087C39.9088 28.6515 39.6616 28.6075 39.4232 28.6075C32.9166 28.6031 26.4101 28.6031 19.9035 28.6075C19.6078 28.6075 19.3076 28.6779 19.0119 28.7175C18.5925 28.7747 18.3895 29.0826 18.3144 29.4345C18.2261 29.8744 18.1864 30.3275 18.1864 30.7761C18.182 44.3906 18.182 58.0007 18.1864 71.6152C18.1864 72.0639 18.2394 72.517 18.3056 72.9569C18.363 73.322 18.619 73.5727 18.9677 73.6519C19.3297 73.7355 19.7137 73.7795 20.0845 73.7795C26.4763 73.7883 32.8681 73.7839 39.2599 73.7839C39.3923 73.7839 39.538 73.8147 39.6572 73.7751C40.0015 73.6651 40.3988 73.7443 40.6989 73.432C41.0167 73.1021 41.0785 72.7237 41.0785 72.2971C41.0785 65.2633 41.0785 58.2295 41.0785 51.1957H41.0874ZM72.3489 45.4332C72.3489 40.2821 72.3489 35.1266 72.3489 29.9755C72.3489 29.8436 72.3533 29.7072 72.3489 29.5752C72.3224 29.1266 72.0619 28.8142 71.6073 28.7219C71.3336 28.6647 71.0511 28.6119 70.773 28.6119C64.0722 28.6075 57.3758 28.6075 50.675 28.6075C50.5603 28.6075 50.4455 28.5943 50.3307 28.6075C49.598 28.7087 49.0992 28.911 49.0992 29.892C49.0992 40.2161 49.0992 50.5403 49.0992 60.8688C49.0992 61.8409 49.5936 62.1005 50.3307 62.1401C51.3019 62.1929 52.2774 62.1621 53.2485 62.1445C53.4869 62.1445 53.7385 62.0917 53.9592 62.0037C54.3741 61.8366 54.5331 61.3175 54.2771 60.8776C54.0343 60.4597 53.7164 60.0902 53.4383 59.6899C52.838 58.8321 52.3878 57.9216 52.4142 56.8394C52.4451 55.6781 52.9351 54.7896 54.0078 54.2881C54.4933 54.0593 55.0098 53.879 55.5219 53.7118C56.3385 53.4479 56.7181 52.1942 55.8308 51.5828C55.6808 51.4772 55.513 51.3892 55.3453 51.3189C55.1422 51.2309 54.9215 51.1781 54.7185 51.0857C54.3962 50.9361 54.2726 50.659 54.2461 50.3159C54.2152 49.942 54.4492 49.7705 54.7096 49.6077C54.9127 49.4801 55.129 49.4581 55.3585 49.5285C55.4645 49.5593 55.5748 49.5945 55.6852 49.6033C56.4135 49.6693 57.0227 49.9904 57.4994 50.5183C57.9894 51.0637 58.1969 51.7675 58.2189 52.4714C58.2366 52.9156 58.0909 53.4039 57.8879 53.8086C57.6892 54.2089 57.4553 54.6004 57.0536 54.9039C56.5371 55.291 55.9765 55.4934 55.3806 55.6517C54.6567 55.8409 54.3477 56.1972 54.2638 56.6855C54.1667 57.2309 54.2726 57.7764 54.5904 58.2515C54.8553 58.6474 55.1202 59.0433 55.7028 58.9641C56.0251 58.9201 56.2414 58.7133 56.4621 58.5198C56.7313 58.2779 56.952 57.9787 57.239 57.7632C58.6515 56.7295 60.2583 56.228 61.9887 56.1092C62.5272 56.074 62.9245 55.8629 63.0966 55.335C63.1805 55.0711 63.2335 54.7984 63.2909 54.5256C63.3747 54.1429 63.3968 53.7426 63.5381 53.3863C63.7897 52.7617 64.4651 52.4098 65.0875 53.0476C65.1537 53.1136 65.2199 53.1884 65.2905 53.25C65.9924 53.8306 66.1998 53.8526 66.9282 53.2324C67.0165 53.1576 67.0871 53.0652 67.171 52.9904C67.3564 52.8365 67.5374 52.6649 67.7448 52.5417C68.0406 52.3614 68.3363 52.3262 68.685 52.5065C69.0426 52.6913 69.153 53.0036 69.228 53.3115C69.3781 53.9274 69.484 54.5564 69.4752 55.1987C69.4664 55.6561 69.4752 56.1092 69.4752 56.5667C69.4664 57.6752 69.1088 58.6606 68.3363 59.4656C67.917 59.901 67.811 60.4113 67.8817 60.9744C67.9699 61.6738 68.4555 62.1225 69.1618 62.1533C69.8283 62.1797 70.4993 62.1929 71.1658 62.1489C71.6073 62.1181 72.0884 62.0389 72.2517 61.511C72.3135 61.3175 72.34 61.1107 72.34 60.9084C72.3444 55.7573 72.34 50.6018 72.34 45.4508L72.3489 45.4332ZM43.8374 13.6206C43.8374 12.4812 43.8462 11.3419 43.833 10.2026C43.8286 9.89031 43.7668 9.56919 43.6917 9.26567C43.6211 8.97534 43.4092 8.7686 43.1223 8.68942C42.8354 8.61024 42.5352 8.53986 42.2395 8.53546C40.028 8.52226 37.8164 8.51346 35.6049 8.53546C35.0708 8.53986 34.4969 8.60584 34.1438 9.11611C33.9981 9.33165 33.8657 9.56039 33.7686 9.79793C33.5611 10.3126 33.3757 10.8405 33.1947 11.3639C32.5017 13.383 31.8219 15.4065 31.1112 17.4168C30.8199 18.2394 31.1863 18.7232 31.7778 19.0488C33.155 19.8142 34.6514 20.2145 36.1964 20.3596C37.1101 20.4432 38.0415 20.4344 38.9729 20.2936C40.3016 20.0913 41.5376 19.6646 42.725 19.0576C43.1576 18.8376 43.5284 18.5605 43.6697 18.0854C43.7668 17.7467 43.8242 17.3904 43.8286 17.0385C43.8462 15.8992 43.8374 14.7599 43.8374 13.6206ZM26.6573 8.52666C25.4169 8.52666 24.1809 8.51786 22.9405 8.53106C22.5653 8.53546 22.1945 8.60144 21.8237 8.66302C21.7001 8.68502 21.5765 8.7642 21.4838 8.84778C21.2234 9.08972 20.9762 9.33605 20.8129 9.67477C20.1022 11.1748 19.365 12.6616 18.6367 14.1528C18.1114 15.2261 17.5728 16.2907 17.0652 17.3684C16.7606 18.0106 16.9416 18.4813 17.5728 18.8156C18.3674 19.2379 19.2326 19.4974 20.1022 19.6866C20.9762 19.8757 21.8811 19.9329 22.7728 20.0429C22.9008 20.0605 23.0376 20.0385 23.17 20.0209C23.3554 19.9989 23.5364 19.9549 23.7218 19.9329C24.1721 19.8889 24.6311 19.9021 25.0682 19.801C26.0834 19.5634 27.0811 19.2555 28.008 18.7584C28.6393 18.4197 29.0895 17.927 29.3102 17.232C29.4647 16.7393 29.681 16.2599 29.8488 15.7716C30.5241 13.8273 31.1951 11.8786 31.8528 9.9255C31.9323 9.68356 31.9323 9.40643 31.9279 9.1469C31.9235 8.93575 31.6144 8.66303 31.3893 8.64103C30.8243 8.59704 30.2637 8.53986 29.6987 8.52666C28.6878 8.50906 27.677 8.52226 26.6661 8.52226L26.6573 8.52666ZM45.5546 13.5722C45.5546 14.8082 45.5678 16.0399 45.5546 17.276C45.5457 17.9886 45.8724 18.5209 46.433 18.886C47.1525 19.3523 47.9382 19.6866 48.7637 19.9549C49.5671 20.2145 50.3793 20.452 51.2136 20.496C52.2686 20.5488 53.3236 20.5488 54.3697 20.2936C55.5174 20.0165 56.621 19.6338 57.6274 19.0136C58.1351 18.7012 58.3337 18.037 58.1174 17.4608C57.7466 16.471 57.3582 15.4857 56.9785 14.5003C56.5636 13.4094 56.1575 12.3141 55.7337 11.2232C55.491 10.5985 55.2305 9.98708 54.9568 9.37564C54.7979 9.01493 54.5066 8.751 54.127 8.66742C53.7473 8.57945 53.3456 8.55305 52.9528 8.54426C52.2862 8.52666 51.6197 8.53986 50.9531 8.53986C49.6951 8.53986 48.437 8.52226 47.179 8.54865C46.817 8.55745 46.4153 8.61024 46.1019 8.773C45.6958 8.98414 45.559 9.41083 45.559 9.87711C45.5678 11.1132 45.559 12.3449 45.559 13.581L45.5546 13.5722ZM8.40449 20.0517C8.40449 20.0517 8.40449 20.0869 8.40449 20.1001C9.15491 20.0385 9.923 20.0429 10.6602 19.9021C11.4238 19.757 12.1698 19.5018 12.9026 19.2379C13.8825 18.886 14.6594 18.3273 15.1097 17.3112C15.7718 15.8112 16.5399 14.3552 17.2638 12.8815C17.7008 11.993 18.1643 11.1176 18.5837 10.2202C18.7249 9.9255 18.8088 9.59119 18.8574 9.26567C18.8971 9.01054 18.619 8.68502 18.3806 8.64543C18.0672 8.59264 17.7494 8.53106 17.4316 8.52666C15.22 8.51786 13.0085 8.50467 10.797 8.52666C10.1128 8.53546 9.45067 8.69822 8.99159 9.28327C8.84151 9.47242 8.68261 9.65717 8.53694 9.85072C7.70707 10.9548 6.87277 12.059 6.04731 13.1631C5.32338 14.1352 4.59944 15.1074 3.88434 16.0839C3.5003 16.6074 3.10743 17.1308 2.74988 17.6763C2.4762 18.0942 2.5071 18.7848 3.05446 18.952C3.46057 19.0751 3.84461 19.2863 4.24631 19.4227C5.4249 19.823 6.63439 20.0605 7.88362 20.0341C8.05577 20.0341 8.22794 20.0341 8.4001 20.0341L8.40449 20.0517ZM61.8342 8.52666C61.3751 8.52666 60.916 8.51346 60.4614 8.52666C59.5741 8.56185 58.6824 8.45188 57.7952 8.62344C57.0315 8.773 56.8549 9.08532 57.0889 9.81113C57.3184 10.5149 57.5789 11.21 57.8437 11.905C58.4396 13.4842 59.04 15.0634 59.6491 16.6382C59.8345 17.122 60.0111 17.6191 60.2627 18.0722C60.6821 18.8288 61.406 19.2467 62.1697 19.5722C62.9245 19.8933 63.7191 20.0605 64.5445 20.1925C65.5068 20.3464 66.4338 20.2408 67.3564 20.1133C68.4246 19.9681 69.4531 19.6074 70.4684 19.2379C70.9098 19.0751 71.3424 18.886 71.6514 18.5077C71.8412 18.2746 71.956 18.0502 71.7838 17.7467C71.5366 17.3112 71.3292 16.8537 71.0908 16.4138C70.7376 15.7584 70.3713 15.1074 70.0049 14.4607C69.4531 13.4886 68.8925 12.5252 68.3319 11.5575C67.9214 10.8493 67.5109 10.1366 67.0783 9.44163C66.8487 9.07212 66.5618 8.71141 66.1027 8.64543C65.5818 8.56625 65.0521 8.53546 64.5268 8.52666C63.6308 8.50906 62.7347 8.52226 61.8386 8.52226L61.8342 8.52666ZM74.0086 8.52666C73.1522 8.52666 72.2915 8.52666 71.4351 8.52666C70.9275 8.52666 70.4242 8.52666 69.9122 8.62783C69.1927 8.7642 69.1794 8.98854 69.3119 9.66157C69.3295 9.74955 69.3957 9.82873 69.4399 9.9123C69.6959 10.3874 69.9431 10.8669 70.2079 11.3419C70.5522 11.9622 70.901 12.578 71.2541 13.1895C71.7971 14.122 72.3488 15.0502 72.8918 15.9827C73.2847 16.6558 73.6466 17.3552 74.0836 18.0018C74.375 18.4329 74.7546 18.7936 75.249 19.0444C76.2907 19.5722 77.3855 19.823 78.5508 19.823C79.0452 19.823 79.5484 19.8581 80.0384 19.8054C80.6299 19.7394 81.217 19.6074 81.7953 19.4798C82.6295 19.2907 83.4771 19.1279 84.2319 18.6924C84.6424 18.4549 84.7793 18.1646 84.6027 17.7335C84.4659 17.3904 84.2893 17.0605 84.0862 16.7481C83.0357 15.1206 81.9762 13.5018 80.9124 11.883C80.3165 10.9812 79.7294 10.0751 79.0893 9.20409C78.9039 8.95335 78.5773 8.7466 78.2727 8.66302C77.8445 8.54865 77.3811 8.53986 76.9308 8.53106C75.9597 8.51346 74.9841 8.52666 74.013 8.52666H74.0086Z" fill="black"/>
<path d="M23.0068 48.9127C24.3046 48.7675 25.2845 49.9904 25.2713 51.1033C25.2536 52.3218 24.1633 53.25 23.0024 53.2719C21.7796 53.2939 20.8174 52.0095 20.7953 51.0197C20.7732 50.0432 21.8988 48.7103 23.0068 48.9083V48.9127Z" fill="black"/>
<path d="M60.7395 47.769C58.0865 47.769 55.438 47.769 52.7851 47.769C52.688 47.769 52.5952 47.769 52.4981 47.769C51.8978 47.7602 51.5932 47.5006 51.5138 46.9156C51.4961 46.7836 51.5093 46.6517 51.5093 46.5153C51.5093 43.4361 51.5093 40.3569 51.5093 37.2777C51.5093 37.1809 51.5049 37.0885 51.5093 36.9917C51.5403 36.4815 51.783 36.2439 52.2907 36.2439C53.7606 36.2439 55.2305 36.2263 56.6961 36.2571C57.0492 36.2659 57.2478 36.1384 57.4288 35.8788C57.8173 35.329 58.2057 34.7835 58.5986 34.238C58.6736 34.1325 58.7354 34.0093 58.8281 33.9213C58.9782 33.7806 58.9694 33.6222 58.9341 33.4506C58.9032 33.3055 58.8679 33.1603 58.8325 33.0152C58.55 31.8934 59.1504 30.9213 60.276 30.6442C61.7018 30.2923 62.9951 31.4756 62.7303 33.0372C62.7303 33.0548 62.7259 33.0767 62.7126 33.0899C62.3463 33.5166 62.6288 33.829 62.8804 34.1677C63.3041 34.7351 63.7191 35.3114 64.1031 35.9052C64.2709 36.1604 64.4607 36.2483 64.7564 36.2483C66.169 36.2395 67.5771 36.2439 68.9896 36.2439C69.7533 36.2439 69.9475 36.4375 69.9475 37.2161C69.9475 40.3701 69.9475 43.5241 69.9475 46.6781C69.9475 47.4654 69.6518 47.7646 68.8705 47.7646C66.1601 47.7646 63.4542 47.7646 60.7439 47.7646L60.7395 47.769ZM60.7395 46.5153C63.1629 46.5153 65.5863 46.5153 68.0097 46.5153C68.1421 46.5153 68.279 46.5065 68.4114 46.5153C68.6012 46.5241 68.7027 46.4625 68.6851 46.2558C68.6762 46.1634 68.6851 46.0666 68.6851 45.9698C68.6851 43.3261 68.6851 40.6824 68.6851 38.0387C68.6851 37.9243 68.6851 37.8099 68.6851 37.6956C68.6762 37.4888 68.5659 37.3876 68.3584 37.3832C68.2436 37.3832 68.1289 37.3832 68.0141 37.3832C63.1276 37.3832 58.241 37.3832 53.3589 37.3832C53.2265 37.3832 53.0896 37.3656 52.9616 37.392C52.891 37.4052 52.8027 37.4888 52.7851 37.5548C52.7542 37.6824 52.7718 37.8187 52.7718 37.9507C52.7718 40.612 52.7718 43.2733 52.7718 45.939C52.7718 46.0534 52.7762 46.1678 52.7718 46.2822C52.763 46.4537 52.8513 46.5153 53.0146 46.5109C53.147 46.5065 53.2839 46.5109 53.4163 46.5109C55.8574 46.5109 58.3028 46.5109 60.7439 46.5109L60.7395 46.5153ZM60.66 36.2483C61.2118 36.2483 61.7591 36.2483 62.3109 36.2483C62.4389 36.2483 62.5714 36.2175 62.6994 36.1999C62.642 36.09 62.5979 35.9712 62.5272 35.87C62.2447 35.4389 61.9578 35.0035 61.6576 34.5812C61.6091 34.5108 61.4767 34.458 61.384 34.4624C60.9911 34.4712 60.5894 34.568 60.2142 34.5108C59.9935 34.4756 59.892 34.5416 59.7993 34.6647C59.4682 35.1134 59.1503 35.5665 58.8369 36.024C58.7531 36.1472 58.731 36.2527 58.9561 36.2483C59.5256 36.2395 60.095 36.2483 60.6644 36.2483H60.66Z" fill="black"/>
<path d="M64.103 42.0724C64.103 41.2542 64.103 40.4405 64.103 39.6223C64.103 39.4331 64.1118 39.2704 64.2575 39.0988C64.5356 38.7689 65.0476 38.7777 65.2419 39.1912C65.3919 39.5123 65.5332 39.8378 65.6701 40.1589C65.8025 40.4668 65.9217 40.7792 66.0497 41.0871C66.0673 41.1311 66.1026 41.1707 66.1291 41.2147C66.1424 41.1619 66.16 41.1047 66.1645 41.0519C66.1645 40.6164 66.1424 40.1765 66.1733 39.741C66.1953 39.4375 66.1998 39.1032 66.5794 38.9536C66.9546 38.8085 67.3651 39.0108 67.4181 39.4111C67.4269 39.4859 67.4181 39.5651 67.4181 39.6399C67.4181 41.2542 67.4181 42.8686 67.4137 44.4874C67.4137 44.6458 67.3916 44.8393 67.3033 44.9625C67.0429 45.3232 66.5882 45.3012 66.3322 44.9141C66.1689 44.6678 66.0629 44.3818 65.9349 44.1135C65.9217 44.0827 65.9349 44.0343 65.9217 44.0035C65.7451 43.6076 65.5685 43.2161 65.3875 42.8202C65.3787 43.2381 65.3655 43.6516 65.3566 44.0695C65.3522 44.2763 65.3743 44.4918 65.3434 44.6942C65.3037 44.9625 64.9064 45.2704 64.6592 45.2528C64.3723 45.2352 64.0986 44.9229 64.0942 44.5842C64.0898 43.7484 64.0942 42.9126 64.0942 42.0768L64.103 42.0724Z" fill="black"/>
<path d="M57.0138 42.0768C56.9078 42.7323 56.9255 43.4933 56.6518 44.1971C56.5017 44.5754 56.3296 44.9449 55.9146 45.1296C55.4158 45.354 54.7581 45.1868 54.4933 44.7074C54.224 44.2147 54.0562 43.6824 54.0209 43.115C54.0077 42.895 53.915 42.6751 53.9194 42.4551C53.9371 41.4478 53.9812 40.4404 54.4535 39.5079C54.6831 39.0592 55.0274 38.8437 55.5394 38.8613C55.9455 38.8745 56.2369 39.09 56.409 39.4067C56.6121 39.7762 56.7754 40.1853 56.8681 40.5944C56.9696 41.0475 56.9652 41.5226 57.0138 42.0724V42.0768ZM55.7955 42.0284C55.7955 42.0284 55.7601 42.024 55.7425 42.0196C55.7425 41.8305 55.7646 41.6369 55.7381 41.4522C55.6851 41.1047 55.6056 40.766 55.5306 40.4229C55.5173 40.3701 55.4776 40.3261 55.4511 40.2777C55.4335 40.3305 55.4158 40.3833 55.3982 40.4317C55.1112 41.2103 55.1554 42.0196 55.1819 42.8246C55.1907 43.0622 55.2746 43.2953 55.3319 43.5329C55.3496 43.6032 55.4026 43.6604 55.4423 43.7264C55.4909 43.6604 55.5703 43.5988 55.5836 43.5241C55.663 43.027 55.7248 42.5255 55.7955 42.0284Z" fill="black"/>
<path d="M58.6428 38.8701C58.9871 38.8569 59.3711 38.8833 59.7198 39.1208C60.4923 39.6355 60.8058 40.502 60.5983 41.4126C60.3952 42.3012 59.9141 42.8906 59.0092 43.093C58.8547 43.1282 58.837 43.2117 58.8326 43.3305C58.8326 43.6912 58.8458 44.0519 58.8238 44.4126C58.8149 44.593 58.7929 44.8041 58.7002 44.9449C58.4353 45.3408 57.9718 45.3716 57.6982 44.9317C57.5966 44.7689 57.5745 44.5402 57.5745 44.3422C57.5657 42.8246 57.5701 41.3026 57.5701 39.785C57.5701 39.6882 57.5613 39.5915 57.5745 39.4991C57.6363 39.0944 57.888 38.8833 58.3029 38.8745C58.4 38.8745 58.4927 38.8745 58.6384 38.8745L58.6428 38.8701ZM58.8326 40.9463C58.8326 40.9463 58.8326 40.9463 58.837 40.9463C58.837 41.1927 58.8326 41.439 58.837 41.6853C58.837 41.8041 58.9121 41.8613 59.0224 41.7953C59.4285 41.5534 59.5654 40.5812 59.2299 40.2733C59.1548 40.2029 59.0312 40.1853 58.9297 40.1413C58.8988 40.2381 58.8458 40.3349 58.837 40.4317C58.8193 40.6032 58.837 40.7748 58.837 40.9419L58.8326 40.9463Z" fill="black"/>
<path d="M61.1234 41.9933C61.1234 41.1971 61.1234 40.4009 61.1234 39.6047C61.1234 39.1252 61.3706 38.8833 61.8473 38.8745C62.1696 38.8701 62.4962 38.8701 62.8185 38.8745C63.2731 38.8833 63.4894 39.0548 63.5247 39.4199C63.56 39.7542 63.3217 40.0446 62.9332 40.1193C62.7699 40.1501 62.5006 40.1017 62.4565 40.1853C62.3682 40.3481 62.3991 40.5812 62.3815 40.7836C62.377 40.8408 62.3815 40.8979 62.3815 40.9551C62.3873 41.2161 62.5168 41.3583 62.7699 41.3818C63.101 41.4126 63.4276 41.7205 63.4011 41.9801C63.3747 42.2352 63.0745 42.4903 62.7699 42.5211C62.3903 42.5563 62.3903 42.5563 62.3859 42.9478C62.3859 43.2117 62.3947 43.4801 62.3859 43.744C62.3771 43.9464 62.4653 44.0167 62.6551 44.0035C62.7478 43.9947 62.845 43.9947 62.9421 44.0035C63.2643 44.0299 63.4806 44.2147 63.5291 44.4962C63.5821 44.7953 63.4894 44.9933 63.1937 45.1384C63.0657 45.2044 62.9112 45.244 62.7699 45.2528C62.5227 45.2704 62.2711 45.2352 62.0283 45.2616C61.4721 45.3232 61.0969 44.9141 61.1234 44.3818C61.1587 43.5856 61.1322 42.7894 61.1322 41.9933H61.1234Z" fill="black"/>
</g>
</g>
</svg>
